<svg viewBox="0 0 400 400" xmlns="http://www.w3.org/2000/svg">
  <defs>
    <linearGradient id="bg" x1="0%" y1="0%" x2="100%" y2="100%">
      <stop offset="0%" stop-color="#B9F36C"/>
      <stop offset="50%" stop-color="#3FD4C2"/>
      <stop offset="100%" stop-color="#1FBFAD"/>
    </linearGradient>
  </defs>
  <rect width="400" height="400" fill="url(#bg)"/>
  <!-- Battery (large, center) -->
  <rect x="155" y="130" width="90" height="170" rx="18" fill="white" opacity="0.92"/>
  <rect x="173" y="114" width="54" height="22" rx="8" fill="white" opacity="0.85"/>
  <!-- Battery level bars -->
  <rect x="172" y="155" width="56" height="22" rx="6" fill="#1FBFAD" opacity="0.45"/>
  <rect x="172" y="185" width="56" height="22" rx="6" fill="#1FBFAD" opacity="0.35"/>
  <rect x="172" y="215" width="56" height="22" rx="6" fill="#1FBFAD" opacity="0.25"/>
  <rect x="172" y="245" width="56" height="22" rx="6" fill="#1FBFAD" opacity="0.15"/>
  <!-- USB-C port -->
  <rect x="183" y="283" width="34" height="10" rx="5" fill="#1FBFAD" opacity="0.5"/>
  <!-- Bolt / charge icon -->
  <path d="M204 155 L194 182 L202 182 L198 210 L210 178 L202 178 Z" fill="#1FBFAD" opacity="0.6"/>
  <!-- Small chip left -->
  <rect x="78" y="160" width="58" height="58" rx="12" fill="white" opacity="0.6"/>
  <rect x="88" y="170" width="38" height="38" rx="6" fill="#1FBFAD" opacity="0.2"/>
  <rect x="72" y="176" width="8" height="6" rx="3" fill="white" opacity="0.7"/>
  <rect x="72" y="190" width="8" height="6" rx="3" fill="white" opacity="0.7"/>
  <rect x="72" y="204" width="8" height="6" rx="3" fill="white" opacity="0.7"/>
  <!-- Small chip right -->
  <rect x="264" y="160" width="58" height="58" rx="12" fill="white" opacity="0.6"/>
  <rect x="274" y="170" width="38" height="38" rx="6" fill="#1FBFAD" opacity="0.2"/>
  <rect x="320" y="176" width="8" height="6" rx="3" fill="white" opacity="0.7"/>
  <rect x="320" y="190" width="8" height="6" rx="3" fill="white" opacity="0.7"/>
  <rect x="320" y="204" width="8" height="6" rx="3" fill="white" opacity="0.7"/>
  <!-- Logo -->
  <g transform="translate(352,356)" opacity="0.5">
    <text x="0" y="0" font-family="Arial" font-weight="800" font-size="20" fill="white">V</text>
  </g>
</svg>
