<svg viewBox="0 0 400 400" xmlns="http://www.w3.org/2000/svg">
  <defs>
    <linearGradient id="bg" x1="0%" y1="0%" x2="100%" y2="100%">
      <stop offset="0%" stop-color="#B9F36C"/>
      <stop offset="50%" stop-color="#3FD4C2"/>
      <stop offset="100%" stop-color="#1FBFAD"/>
    </linearGradient>
  </defs>
  <rect width="400" height="400" fill="url(#bg)"/>
  <!-- Hookah base -->
  <ellipse cx="200" cy="295" rx="62" ry="22" fill="white" opacity="0.85"/>
  <path d="M138 295 Q130 240 155 215 Q170 200 200 198 Q230 200 245 215 Q270 240 262 295Z" fill="white" opacity="0.85"/>
  <!-- Water line inside -->
  <path d="M148 270 Q160 260 200 262 Q240 260 252 270" stroke="#3FD4C2" stroke-width="4" fill="none" opacity="0.5"/>
  <!-- Shaft -->
  <rect x="192" y="120" width="16" height="84" rx="8" fill="white" opacity="0.9"/>
  <!-- Bowl top -->
  <ellipse cx="200" cy="118" rx="32" ry="12" fill="white" opacity="0.88"/>
  <ellipse cx="200" cy="106" rx="26" ry="9" fill="white" opacity="0.75"/>
  <!-- Hose connector -->
  <rect x="245" y="240" width="52" height="14" rx="7" fill="white" opacity="0.7"/>
  <circle cx="305" cy="247" r="10" fill="white" opacity="0.65"/>
  <!-- Smoke wisps -->
  <path d="M192 92 Q188 76 196 62 Q200 50 196 38" stroke="white" stroke-width="5" stroke-linecap="round" fill="none" opacity="0.5"/>
  <path d="M200 88 Q204 72 198 58" stroke="white" stroke-width="4" stroke-linecap="round" fill="none" opacity="0.35"/>
  <path d="M208 94 Q214 78 208 64" stroke="white" stroke-width="4" stroke-linecap="round" fill="none" opacity="0.35"/>
  <!-- Logo -->
  <g transform="translate(352,356)" opacity="0.5">
    <text x="0" y="0" font-family="Arial" font-weight="800" font-size="20" fill="white">V</text>
  </g>
</svg>
